<svg width="280" height="120" viewBox="0 0 280 120" fill="none" xmlns="http://www.w3.org/2000/svg">
<rect x="4" y="4" width="272" height="112" rx="20" fill="#E0AD10" stroke="white" stroke-width="8"/>
<path d="M85.3438 36.5H101.875C105.333 36.5 108.302 37.0208 110.781 38.0625C113.26 39.1042 115.167 40.6458 116.5 42.6875C117.833 44.7292 118.5 47.2396 118.5 50.2188C118.5 52.5729 118.083 54.6146 117.25 56.3438C116.417 58.0729 115.24 59.5208 113.719 60.6875C112.219 61.8542 110.448 62.7708 108.406 63.4375L105.719 64.8125H91.125L91.0625 58.0312H101.969C103.74 58.0312 105.208 57.7188 106.375 57.0938C107.542 56.4688 108.417 55.6042 109 54.5C109.604 53.3958 109.906 52.1354 109.906 50.7188C109.906 49.1979 109.615 47.8854 109.031 46.7812C108.448 45.6562 107.562 44.7917 106.375 44.1875C105.188 43.5833 103.688 43.2812 101.875 43.2812H93.9375V82H85.3438V36.5ZM111.031 82L100.5 61.625L109.594 61.5938L120.25 81.5625V82H111.031ZM152.656 67.0312H161.25C161.021 70.0729 160.177 72.7708 158.719 75.125C157.26 77.4583 155.229 79.2917 152.625 80.625C150.021 81.9583 146.865 82.625 143.156 82.625C140.302 82.625 137.729 82.125 135.438 81.125C133.167 80.1042 131.219 78.6562 129.594 76.7812C127.99 74.8854 126.76 72.6146 125.906 69.9688C125.052 67.3021 124.625 64.3125 124.625 61V57.5312C124.625 54.2188 125.062 51.2292 125.938 48.5625C126.812 45.8958 128.062 43.625 129.688 41.75C131.333 39.8542 133.302 38.3958 135.594 37.375C137.906 36.3542 140.49 35.8438 143.344 35.8438C147.052 35.8438 150.188 36.5312 152.75 37.9062C155.312 39.2604 157.302 41.125 158.719 43.5C160.135 45.875 160.99 48.6042 161.281 51.6875H152.688C152.521 49.7708 152.104 48.1458 151.438 46.8125C150.792 45.4792 149.812 44.4688 148.5 43.7812C147.208 43.0729 145.49 42.7188 143.344 42.7188C141.677 42.7188 140.208 43.0312 138.938 43.6562C137.688 44.2812 136.646 45.2188 135.812 46.4688C134.979 47.6979 134.354 49.2396 133.938 51.0938C133.521 52.9271 133.312 55.0521 133.312 57.4688V61C133.312 63.3125 133.5 65.3854 133.875 67.2188C134.25 69.0521 134.833 70.6042 135.625 71.875C136.417 73.1458 137.438 74.1146 138.688 74.7812C139.938 75.4479 141.427 75.7812 143.156 75.7812C145.26 75.7812 146.969 75.4479 148.281 74.7812C149.615 74.1146 150.625 73.1354 151.312 71.8438C152.021 70.5521 152.469 68.9479 152.656 67.0312ZM196.781 75.25V82H173.906V75.25H196.781ZM176.5 36.5V82H167.906V36.5H176.5Z" fill="black"/>
</svg>
